<mxfile host="app.diagrams.net" modified="2022-11-29T05:57:17.789Z" agent="5.0 (Windows NT 10.0; Win64; x64) AppleWebKit/537.36 (KHTML, like Gecko) Chrome/107.0.0.0 Safari/537.36" version="20.6.0" etag="8kbDbRN5iSDmxSDav_su" type="github">
  <diagram id="ssKycrtSMsemJ2zY77Yj" name="Страница 1">
    <mxGraphModel dx="869" dy="552" grid="1" gridSize="10" guides="1" tooltips="1" connect="1" arrows="1" fold="1" page="1" pageScale="1" pageWidth="827" pageHeight="1169" math="0" shadow="0">
      <root>
        <mxCell id="0" />
        <mxCell id="1" parent="0" />
        <mxCell id="WKu-Oy1HrpZxNEacMhId-6" value="&lt;font style=&quot;font-size: 8px;&quot;&gt;IncGUID=5cb453b3-aed7-4e85-9de1-d02432593c27&lt;/font&gt;" style="text;html=1;align=center;verticalAlign=middle;resizable=0;points=[];autosize=1;strokeColor=none;fillColor=none;" vertex="1" parent="1">
          <mxGeometry x="75" y="113" width="210" height="30" as="geometry" />
        </mxCell>
        <mxCell id="WKu-Oy1HrpZxNEacMhId-2" value="" style="shape=umlLifeline;participant=umlActor;perimeter=lifelinePerimeter;whiteSpace=wrap;html=1;container=1;collapsible=0;recursiveResize=0;verticalAlign=top;spacingTop=36;outlineConnect=0;" vertex="1" parent="1">
          <mxGeometry x="70" y="40" width="20" height="3440" as="geometry" />
        </mxCell>
        <mxCell id="WKu-Oy1HrpZxNEacMhId-3" value=":ExpertCabinetTask.aspx" style="shape=umlLifeline;perimeter=lifelinePerimeter;whiteSpace=wrap;html=1;container=1;collapsible=0;recursiveResize=0;outlineConnect=0;" vertex="1" parent="1">
          <mxGeometry x="200" y="40" width="160" height="3440" as="geometry" />
        </mxCell>
        <mxCell id="WKu-Oy1HrpZxNEacMhId-5" value="" style="html=1;points=[];perimeter=orthogonalPerimeter;" vertex="1" parent="WKu-Oy1HrpZxNEacMhId-3">
          <mxGeometry x="75" y="70" width="10" height="490" as="geometry" />
        </mxCell>
        <mxCell id="WKu-Oy1HrpZxNEacMhId-4" value="&amp;lt;&amp;lt; load &amp;gt;&amp;gt;" style="html=1;verticalAlign=bottom;endArrow=block;rounded=0;entryX=0.052;entryY=0.001;entryDx=0;entryDy=0;entryPerimeter=0;" edge="1" parent="1" source="WKu-Oy1HrpZxNEacMhId-2" target="WKu-Oy1HrpZxNEacMhId-5">
          <mxGeometry width="80" relative="1" as="geometry">
            <mxPoint x="330" y="100" as="sourcePoint" />
            <mxPoint x="410" y="100" as="targetPoint" />
          </mxGeometry>
        </mxCell>
        <mxCell id="WKu-Oy1HrpZxNEacMhId-7" value="&lt;font style=&quot;font-size: 12px;&quot;&gt;:DB&lt;/font&gt;" style="shape=umlLifeline;perimeter=lifelinePerimeter;whiteSpace=wrap;html=1;container=1;collapsible=0;recursiveResize=0;outlineConnect=0;fontSize=8;" vertex="1" parent="1">
          <mxGeometry x="1110" y="40" width="100" height="3440" as="geometry" />
        </mxCell>
        <mxCell id="WKu-Oy1HrpZxNEacMhId-9" value="" style="html=1;points=[];perimeter=orthogonalPerimeter;fontSize=12;" vertex="1" parent="WKu-Oy1HrpZxNEacMhId-7">
          <mxGeometry x="44.99999999999977" y="90" width="10" height="80" as="geometry" />
        </mxCell>
        <mxCell id="WKu-Oy1HrpZxNEacMhId-8" value="SELECT TOP 1 inNumber FROM GRLS.dbo.StatementIncoming WHERE StatementIncomingGUID = &#39;{0}&#39;" style="html=1;verticalAlign=bottom;endArrow=block;rounded=0;fontSize=12;entryX=-0.082;entryY=0.021;entryDx=0;entryDy=0;entryPerimeter=0;" edge="1" parent="1" source="WKu-Oy1HrpZxNEacMhId-5" target="WKu-Oy1HrpZxNEacMhId-9">
          <mxGeometry width="80" relative="1" as="geometry">
            <mxPoint x="640" y="50" as="sourcePoint" />
            <mxPoint x="720" y="50" as="targetPoint" />
          </mxGeometry>
        </mxCell>
      </root>
    </mxGraphModel>
  </diagram>
</mxfile>
